<svg width="1668" height="869" viewBox="0 0 1668 869" fill="none" xmlns="http://www.w3.org/2000/svg">
<rect width="1668" height="869" fill="#1362F6"/>
<path d="M473 328H508.5V503H474.25V389.5L425 470.75H421L371.75 389.75V503H337.25V328H372.75L423 410.75L473 328ZM593.357 462L621.107 378H655.607L610.107 503C603.607 521 594.941 534 584.107 542C573.441 550.167 560.107 553.833 544.107 553V523C552.607 523.167 559.441 521.333 564.607 517.5C569.774 513.667 573.857 507.5 576.857 499L525.607 378H560.857L593.357 462ZM819.705 480.25C802.038 497.75 780.538 506.5 755.205 506.5C729.872 506.5 708.372 497.75 690.705 480.25C673.205 462.417 664.455 440.833 664.455 415.5C664.455 390 673.205 368.5 690.705 351C708.372 333.333 729.872 324.5 755.205 324.5C780.538 324.5 802.038 333.333 819.705 351C837.372 368.5 846.205 390 846.205 415.5C846.205 441 837.372 462.583 819.705 480.25ZM714.955 456.75C725.622 467.417 739.038 472.75 755.205 472.75C771.372 472.75 784.788 467.417 795.455 456.75C806.288 445.917 811.705 432.167 811.705 415.5C811.705 398.833 806.288 385.083 795.455 374.25C784.622 363.417 771.205 358 755.205 358C739.205 358 725.788 363.417 714.955 374.25C704.122 385.083 698.705 398.833 698.705 415.5C698.705 432.167 704.122 445.917 714.955 456.75ZM901.203 503H868.953V320.5H901.203V503ZM946.721 363C941.387 363 936.721 361.083 932.721 357.25C928.887 353.25 926.971 348.583 926.971 343.25C926.971 337.917 928.887 333.25 932.721 329.25C936.721 325.25 941.387 323.25 946.721 323.25C952.221 323.25 956.887 325.25 960.721 329.25C964.721 333.25 966.721 337.917 966.721 343.25C966.721 348.583 964.721 353.25 960.721 357.25C956.887 361.083 952.221 363 946.721 363ZM962.971 503H930.721V378H962.971V503ZM1130.74 374.5C1145.07 374.5 1156.49 379.167 1164.99 388.5C1173.65 397.833 1177.99 410.333 1177.99 426V503H1145.74V428.25C1145.74 420.75 1143.9 414.917 1140.24 410.75C1136.57 406.583 1131.4 404.5 1124.74 404.5C1117.4 404.5 1111.65 406.917 1107.49 411.75C1103.49 416.583 1101.49 423.583 1101.49 432.75V503H1069.24V428.25C1069.24 420.75 1067.4 414.917 1063.74 410.75C1060.07 406.583 1054.9 404.5 1048.24 404.5C1041.07 404.5 1035.32 407 1030.99 412C1026.82 416.833 1024.74 423.75 1024.74 432.75V503H992.488V378H1024.74V391.25C1032.24 380.083 1043.82 374.5 1059.49 374.5C1074.99 374.5 1086.32 380.5 1093.49 392.5C1101.65 380.5 1114.07 374.5 1130.74 374.5ZM1278.13 374.5C1294.96 374.5 1309.3 380.917 1321.13 393.75C1333.13 406.583 1339.13 422.167 1339.13 440.5C1339.13 459.167 1333.13 474.833 1321.13 487.5C1309.46 500.167 1295.13 506.5 1278.13 506.5C1260.63 506.5 1247.13 500.417 1237.63 488.25V553H1205.38V378H1237.63V392.75C1247.13 380.583 1260.63 374.5 1278.13 374.5ZM1247.38 466C1253.88 472.5 1262.13 475.75 1272.13 475.75C1282.13 475.75 1290.38 472.5 1296.88 466C1303.55 459.333 1306.88 450.833 1306.88 440.5C1306.88 430.167 1303.55 421.75 1296.88 415.25C1290.38 408.583 1282.13 405.25 1272.13 405.25C1262.13 405.25 1253.88 408.583 1247.38 415.25C1240.88 421.75 1237.63 430.167 1237.63 440.5C1237.63 450.833 1240.88 459.333 1247.38 466Z" fill="white"/>
<path d="M744.72 240.172C746.067 236.026 751.933 236.026 753.28 240.172L760.45 262.24C761.053 264.094 762.78 265.35 764.73 265.35H787.934C792.293 265.35 794.106 270.928 790.579 273.49L771.807 287.129C770.229 288.275 769.569 290.306 770.172 292.16L777.342 314.229C778.689 318.375 773.944 321.822 770.418 319.26L751.645 305.621C750.068 304.475 747.932 304.475 746.355 305.621L727.582 319.26C724.056 321.822 719.311 318.375 720.658 314.229L727.828 292.16C728.431 290.306 727.771 288.275 726.193 287.129L707.421 273.49C703.894 270.928 705.707 265.35 710.066 265.35H733.27C735.22 265.35 736.947 264.094 737.55 262.24L744.72 240.172Z" fill="white"/>
<path d="M829.505 286.755C831.217 284.808 834.419 286.19 834.178 288.771L832.895 302.508C832.787 303.662 833.435 304.754 834.499 305.213L847.168 310.678C849.548 311.705 849.224 315.177 846.695 315.746L833.233 318.771C832.102 319.025 831.264 319.979 831.156 321.133L829.873 334.87C829.632 337.451 826.23 338.215 824.908 335.986L817.871 324.118C817.28 323.121 816.114 322.618 814.983 322.872L801.521 325.897C798.992 326.466 797.214 323.466 798.926 321.52L808.038 311.16C808.803 310.29 808.922 309.025 808.33 308.028L801.294 296.16C799.972 293.931 802.275 291.312 804.655 292.339L817.323 297.804C818.388 298.263 819.627 297.985 820.392 297.114L829.505 286.755Z" fill="white"/>
<path d="M664.067 288.63C663.826 286.05 667.028 284.668 668.74 286.615L677.852 296.975C678.617 297.846 679.856 298.124 680.921 297.665L693.589 292.201C695.97 291.175 698.273 293.794 696.951 296.023L689.913 307.89C689.321 308.887 689.439 310.151 690.205 311.022L699.316 321.382C701.028 323.329 699.249 326.328 696.72 325.76L683.259 322.734C682.128 322.479 680.962 322.982 680.371 323.979L673.333 335.846C672.011 338.076 668.609 337.311 668.368 334.73L667.086 320.993C666.978 319.839 666.14 318.885 665.009 318.631L651.548 315.605C649.019 315.036 648.695 311.564 651.075 310.537L663.744 305.073C664.808 304.614 665.456 303.522 665.348 302.368L664.067 288.63Z" fill="white"/>
</svg>
