<svg width="1668" height="869" viewBox="0 0 1668 869" fill="none" xmlns="http://www.w3.org/2000/svg">
<rect width="1668" height="869" fill="white"/>
<path d="M508.5 345V520H474.25V406.5L425 487.75H421L371.75 406.75V520H337.25V345H372.75L423 427.75L473 345H508.5ZM621.107 395H655.607L610.107 520C603.607 538 594.941 551 584.107 559C573.441 567.167 560.107 570.833 544.107 570V540C552.774 540.167 559.607 538.333 564.607 534.5C569.774 530.667 573.857 524.5 576.857 516L525.607 395H560.857L593.357 479L621.107 395ZM819.705 497.25C802.038 514.75 780.538 523.5 755.205 523.5C729.872 523.5 708.372 514.75 690.705 497.25C673.205 479.583 664.455 458 664.455 432.5C664.455 407 673.205 385.5 690.705 368C708.372 350.333 729.872 341.5 755.205 341.5C780.538 341.5 802.038 350.333 819.705 368C837.372 385.5 846.205 407 846.205 432.5C846.205 458 837.372 479.583 819.705 497.25ZM714.955 473.75C725.788 484.417 739.205 489.75 755.205 489.75C771.205 489.75 784.622 484.417 795.455 473.75C806.288 462.917 811.705 449.167 811.705 432.5C811.705 415.833 806.288 402.083 795.455 391.25C784.622 380.417 771.205 375 755.205 375C739.205 375 725.788 380.417 714.955 391.25C704.122 402.083 698.705 415.833 698.705 432.5C698.705 449.167 704.122 462.917 714.955 473.75ZM868.953 520V337.5H901.203V520H868.953ZM946.721 380C941.387 380 936.721 378.083 932.721 374.25C928.887 370.25 926.971 365.583 926.971 360.25C926.971 354.917 928.887 350.25 932.721 346.25C936.721 342.25 941.387 340.25 946.721 340.25C952.221 340.25 956.887 342.25 960.721 346.25C964.721 350.25 966.721 354.917 966.721 360.25C966.721 365.583 964.721 370.25 960.721 374.25C956.887 378.083 952.221 380 946.721 380ZM930.721 520V395H962.971V520H930.721ZM1130.74 391.5C1145.07 391.5 1156.49 396.167 1164.99 405.5C1173.65 414.833 1177.99 427.333 1177.99 443V520H1145.74V445.25C1145.74 437.75 1143.9 431.917 1140.24 427.75C1136.57 423.583 1131.4 421.5 1124.74 421.5C1117.4 421.5 1111.65 423.917 1107.49 428.75C1103.49 433.583 1101.49 440.583 1101.49 449.75V520H1069.24V445.25C1069.24 437.75 1067.4 431.917 1063.74 427.75C1060.07 423.583 1054.9 421.5 1048.24 421.5C1041.07 421.5 1035.32 423.917 1030.99 428.75C1026.82 433.583 1024.74 440.583 1024.74 449.75V520H992.488V395H1024.74V408.25C1032.24 397.083 1043.82 391.5 1059.49 391.5C1074.82 391.5 1086.15 397.5 1093.49 409.5C1101.82 397.5 1114.24 391.5 1130.74 391.5ZM1278.13 391.5C1294.96 391.5 1309.3 397.917 1321.13 410.75C1333.13 423.417 1339.13 439 1339.13 457.5C1339.13 476 1333.13 491.667 1321.13 504.5C1309.3 517.167 1294.96 523.5 1278.13 523.5C1260.63 523.5 1247.13 517.417 1237.63 505.25V570H1205.38V395H1237.63V409.75C1247.13 397.583 1260.63 391.5 1278.13 391.5ZM1247.38 483C1253.88 489.5 1262.13 492.75 1272.13 492.75C1282.13 492.75 1290.38 489.5 1296.88 483C1303.55 476.333 1306.88 467.833 1306.88 457.5C1306.88 447.167 1303.55 438.75 1296.88 432.25C1290.38 425.583 1282.13 422.25 1272.13 422.25C1262.13 422.25 1253.88 425.583 1247.38 432.25C1240.88 438.75 1237.63 447.167 1237.63 457.5C1237.63 467.833 1240.88 476.333 1247.38 483Z" fill="#1E1E1E"/>
<path d="M744.72 240.172C746.067 236.026 751.933 236.026 753.28 240.172L760.45 262.24C761.053 264.094 762.78 265.35 764.73 265.35H787.934C792.293 265.35 794.106 270.928 790.579 273.49L771.807 287.129C770.229 288.275 769.569 290.306 770.172 292.16L777.342 314.229C778.689 318.375 773.944 321.822 770.418 319.26L751.645 305.621C750.068 304.475 747.932 304.475 746.355 305.621L727.582 319.26C724.056 321.822 719.311 318.375 720.658 314.229L727.828 292.16C728.431 290.306 727.771 288.275 726.193 287.129L707.421 273.49C703.894 270.928 705.707 265.35 710.066 265.35H733.27C735.22 265.35 736.947 264.094 737.55 262.24L744.72 240.172Z" fill="#3579F8"/>
<path d="M829.505 286.755C831.217 284.808 834.419 286.19 834.178 288.771L832.895 302.508C832.787 303.662 833.435 304.754 834.499 305.213L847.168 310.678C849.548 311.705 849.224 315.177 846.695 315.746L833.233 318.771C832.102 319.025 831.264 319.979 831.156 321.133L829.873 334.87C829.632 337.451 826.23 338.215 824.908 335.986L817.871 324.118C817.28 323.121 816.114 322.618 814.983 322.872L801.521 325.897C798.992 326.466 797.214 323.466 798.926 321.52L808.038 311.16C808.803 310.29 808.922 309.025 808.33 308.028L801.294 296.16C799.972 293.931 802.275 291.312 804.655 292.339L817.323 297.804C818.388 298.263 819.627 297.985 820.392 297.114L829.505 286.755Z" fill="#3579F8"/>
<path d="M664.067 288.63C663.826 286.05 667.028 284.668 668.74 286.615L677.852 296.975C678.617 297.846 679.856 298.124 680.921 297.665L693.589 292.201C695.97 291.175 698.273 293.794 696.951 296.023L689.913 307.89C689.321 308.887 689.439 310.151 690.205 311.022L699.316 321.382C701.028 323.329 699.249 326.328 696.72 325.76L683.259 322.734C682.128 322.479 680.962 322.982 680.371 323.979L673.333 335.846C672.011 338.076 668.609 337.311 668.368 334.73L667.086 320.993C666.978 319.839 666.14 318.885 665.009 318.631L651.548 315.605C649.019 315.036 648.695 311.564 651.075 310.537L663.744 305.073C664.808 304.614 665.456 303.522 665.348 302.368L664.067 288.63Z" fill="#3579F8"/>
</svg>
